<?xml version="1.0" encoding="UTF-8"?>
<svg width="600px" height="300px" viewBox="0 0 600 300" version="1.1" xmlns="http://www.w3.org/2000/svg" xmlns:xlink="http://www.w3.org/1999/xlink">
    <!-- Generator: Sketch 52.6 (67491) - http://www.bohemiancoding.com/sketch -->
    <title>fashionLOGO</title>
    <desc>Created with Sketch.</desc>
    <g id="fashionLOGO" stroke="none" stroke-width="1" fill="none" fill-rule="evenodd">
        <path d="M290.8062,69.9281 L290.8062,154.5301 C291.8692,154.6651 291.8062,153.8201 292.0242,153.3731 C294.4512,148.3811 297.4702,143.8311 301.4132,139.8721 C309.9982,131.2521 321.4832,131.4091 330.4982,135.7031 C335.4082,138.0411 338.3102,142.2161 339.8882,147.3301 C340.9102,150.6431 341.3012,154.0571 341.3002,157.5231 C341.2942,178.6521 341.2902,199.7821 341.3042,220.9101 C341.3062,224.2861 340.9102,223.7711 344.2642,223.7831 C351.4602,223.8101 358.6572,223.7911 365.8532,223.7911 C366.3892,223.7911 366.9252,223.7641 367.4602,223.7921 C368.3012,223.8361 368.7712,223.5211 368.7402,222.6201 C368.7232,222.1611 368.7432,221.7011 368.7432,221.2421 L368.7432,143.8451 C368.7432,143.5391 368.7522,143.2321 368.7412,142.9271 C368.6782,141.2931 368.6652,141.2391 367.0552,141.2251 C363.6872,141.1961 360.3182,141.2211 356.9502,141.2131 C354.6952,141.2071 354.5132,140.9491 354.7442,138.6911 C354.8262,137.8801 355.2072,137.6461 355.9212,137.6581 C356.5342,137.6681 357.1462,137.6611 357.7582,137.6541 C362.8102,137.5931 367.8642,137.8061 372.9122,137.5281 C376.5932,137.3251 380.0062,136.3991 382.7352,133.7191 C382.8392,133.6171 382.9912,133.5561 383.1302,133.5031 C383.1842,133.4821 383.2662,133.5351 383.5592,133.6181 L383.5592,135.9751 C383.5592,164.3001 383.5552,192.6251 383.5652,220.9511 C383.5662,224.2181 383.2002,223.7611 386.3372,223.7861 C389.5522,223.8111 392.7692,223.8501 395.9822,223.7641 C397.2932,223.7291 397.4882,224.3161 397.4662,225.4071 C397.4302,227.2261 397.4322,227.2981 396.0712,227.3741 C395.6132,227.3991 395.1522,227.3801 394.6932,227.3801 L315.4582,227.3801 C315.1522,227.3801 314.8452,227.3851 314.5392,227.3791 C312.7232,227.3411 312.7232,227.3401 312.7012,225.6271 C312.6762,223.8331 312.6762,223.8081 314.4062,223.7971 C317.3922,223.7771 320.3772,223.8121 323.3632,223.7861 C327.0112,223.7541 326.5742,224.2721 326.5842,220.6771 C326.6062,214.0171 326.5912,207.3571 326.5912,200.6961 C326.5912,185.0021 326.5952,169.3091 326.5862,153.6151 C326.5842,150.8571 326.4212,148.1081 325.8072,145.4061 C325.6712,144.8111 325.5152,144.2181 325.3212,143.6401 C323.4302,138.0221 319.4102,135.6431 313.5822,136.6721 C309.5292,137.3871 306.1412,139.3541 303.1882,142.1571 C299.5272,145.6301 296.8692,149.8191 294.5882,154.2651 C290.8952,161.4601 290.9112,161.4681 290.9112,169.5521 L290.9112,220.7661 C290.9112,221.3031 290.9542,221.8421 290.9052,222.3731 C290.8012,223.5001 291.3282,223.8221 292.3912,223.8071 C295.6832,223.7611 298.9752,223.7721 302.2672,223.8081 C302.8972,223.8151 303.8152,223.4431 304.0832,224.2731 C304.3592,225.1231 304.3232,226.0941 304.0482,226.9871 C303.9532,227.2991 303.5922,227.3571 303.2822,227.3651 C302.7462,227.3781 302.2102,227.3791 301.6742,227.3791 C289.4262,227.3801 277.1772,227.3801 264.9282,227.3801 C264.7752,227.3801 264.6202,227.3951 264.4692,227.3771 C263.8122,227.2961 262.9202,227.6911 262.5642,226.9861 C262.1522,226.1701 262.2862,225.1661 262.4852,224.2801 C262.6362,223.6051 263.3522,223.8041 263.8532,223.8011 C266.3802,223.7831 268.9062,223.7921 271.4322,223.7911 C272.4282,223.7911 273.4232,223.8051 274.4182,223.7881 C276.1282,223.7581 276.1302,223.7501 276.1672,221.9871 C276.1752,221.6041 276.1692,221.2211 276.1692,220.8381 C276.1692,174.4461 276.1722,128.0541 276.1632,81.6621 C276.1622,78.2561 276.5602,78.7341 273.2792,78.7051 C270.4472,78.6801 267.6142,78.7031 264.7822,78.6991 C262.3702,78.6951 262.3702,78.6921 262.3882,76.8541 C262.4062,75.1241 262.4062,75.1261 264.6892,75.1111 C269.7412,75.0781 274.7942,75.0781 279.8452,74.9951 C282.4792,74.9521 284.9922,74.3181 287.3082,73.0121 C288.5642,72.3041 289.5622,71.2701 290.8062,69.9281" id="Fill-1" fill="#ffffff"></path>
        <path d="M54.9948,151.012 L54.9948,82.35 C54.9948,81.815 54.9988,81.279 54.9948,80.743 C54.9728,78.498 54.9718,78.484 52.7108,78.477 C48.7298,78.465 44.7498,78.484 40.7688,78.461 C40.2028,78.458 39.3828,78.74 39.1638,77.992 C38.8878,77.051 38.8658,76.024 39.2428,75.079 C39.3098,74.909 39.7748,74.849 40.0628,74.827 C40.5958,74.786 41.1338,74.809 41.6688,74.809 L126.8648,74.809 C127.0938,74.809 127.3238,74.806 127.5538,74.81 C129.4728,74.84 129.4948,74.839 129.6728,76.802 C130.3958,84.801 131.1048,92.802 131.8178,100.803 C131.8448,101.107 131.8648,101.413 131.8768,101.719 C131.9368,103.319 130.7048,104.124 129.3018,103.408 C128.7098,103.105 128.7928,102.521 128.7218,102.012 C128.2198,98.449 127.5778,94.917 126.4298,91.495 C126.2348,90.915 126.0438,90.334 125.8308,89.761 C123.4978,83.495 118.9568,80.055 112.3798,79.111 C108.9568,78.619 105.5198,78.503 102.0798,78.487 C93.2768,78.448 84.4738,78.474 75.6718,78.474 C75.2118,78.474 74.7518,78.495 74.2938,78.476 C73.4088,78.439 73.0458,78.865 73.0978,79.727 C73.1248,80.184 73.0978,80.645 73.0978,81.104 L73.0978,135.069 C73.0978,135.222 73.0958,135.375 73.0978,135.529 C73.1218,137.507 73.1218,137.53 75.1118,137.53 C79.6278,137.529 84.1438,137.515 88.6598,137.484 C90.6578,137.47 92.6078,137.097 94.5428,136.608 C100.3958,135.128 103.8418,131.337 105.2808,125.562 C106.1948,121.889 106.2958,118.147 106.3638,114.396 C106.3918,112.843 106.5778,112.773 108.0988,112.761 C109.3888,112.751 109.3558,113.527 109.3558,114.42 C109.3488,130.648 109.3548,146.875 109.3428,163.103 C109.3418,164.561 109.2188,164.559 107.7638,164.621 C106.6198,164.67 106.3398,164.192 106.3388,163.134 C106.3368,159.845 106.3418,156.549 105.7288,153.297 C105.5448,152.322 105.3528,151.342 105.0658,150.394 C103.8688,146.441 101.2758,143.84 97.3538,142.554 C94.5648,141.639 91.6718,141.283 88.7678,141.211 C84.1018,141.096 79.4308,141.143 74.7618,141.149 C73.1448,141.151 73.1408,141.188 73.0998,142.788 C73.0858,143.324 73.0978,143.859 73.0978,144.395 L73.0978,220.405 C73.0978,220.788 73.0968,221.171 73.0978,221.553 C73.1008,223.963 72.9628,223.791 75.3368,223.792 C79.4698,223.793 83.6038,223.777 87.7368,223.808 C88.3678,223.813 89.2858,223.446 89.5558,224.269 C89.8348,225.118 89.7958,226.089 89.5238,226.983 C89.4288,227.297 89.0698,227.355 88.7598,227.363 C88.2238,227.377 87.6878,227.378 87.1528,227.378 C71.9198,227.379 56.6868,227.379 41.4548,227.379 L41.2248,227.379 C39.1418,227.362 38.4638,226.404 39.0618,224.388 C39.2008,223.919 39.4988,223.815 39.8968,223.804 C40.4318,223.79 40.9688,223.793 41.5038,223.792 C45.4078,223.791 49.3118,223.806 53.2158,223.784 C54.9448,223.775 54.9488,223.742 54.9928,221.97 C55.0058,221.434 54.9948,220.898 54.9948,220.363 L54.9948,151.012 Z" id="Fill-3" fill="#ffffff"></path>
        <path d="M496.8854,132.6781 L496.8854,153.8421 C497.8884,152.9471 498.1134,152.1311 498.4724,151.4241 C500.9524,146.5431 504.0224,142.1161 508.0154,138.3171 C516.8294,129.9281 528.7934,130.6981 537.0624,134.8891 C542.3984,137.5941 545.2414,142.3231 546.6584,147.9851 C547.3674,150.8181 547.6384,153.7031 547.6364,156.6291 C547.6174,178.0641 547.6204,199.4991 547.6314,220.9341 C547.6334,224.1541 547.2494,223.7691 550.3964,223.7871 C553.6114,223.8071 556.8264,223.7751 560.0414,223.7991 C561.5954,223.8111 561.5954,223.8451 561.5884,225.5551 C561.5814,227.2901 561.5624,227.3661 560.0504,227.3701 C551.7064,227.3881 543.3624,227.3791 535.0174,227.3791 C530.2714,227.3791 525.5254,227.3901 520.7784,227.3661 C520.1314,227.3631 519.2414,227.7031 518.9064,226.9391 C518.5384,226.1041 518.6274,225.1041 518.8644,224.2291 C519.0324,223.6011 519.7664,223.8021 520.2754,223.8001 C523.4904,223.7851 526.7054,223.7921 529.9214,223.7911 C530.4564,223.7911 530.9934,223.7641 531.5294,223.7911 C532.4204,223.8361 532.7684,223.3961 532.7374,222.5481 C532.7174,222.0131 532.7394,221.4761 532.7394,220.9411 C532.7394,198.0511 532.7434,175.1611 532.7344,152.2711 C532.7334,148.8181 532.5424,145.3811 531.3054,142.0991 C530.1024,138.9071 528.0784,136.4881 524.6144,135.7661 C522.0314,135.2281 519.4464,135.5601 516.9274,136.4101 C512.9584,137.7501 509.8274,140.2611 507.1274,143.3631 C502.6434,148.5131 499.7294,154.5741 497.1134,160.8021 C496.8074,161.5291 496.8174,162.2921 496.8174,163.0591 C496.8194,182.5811 496.8164,202.1021 496.8224,221.6231 C496.8224,223.7661 496.8434,223.7811 498.9414,223.7881 C502.1564,223.8011 505.3714,223.7791 508.5864,223.8041 C509.1464,223.8081 509.9624,223.5151 510.1314,224.3491 C510.3114,225.2311 510.4054,226.1751 510.0224,227.0501 C509.8874,227.3581 509.5274,227.3661 509.2184,227.3701 C508.6824,227.3771 508.1474,227.3791 507.6114,227.3791 L470.6354,227.3791 C470.3284,227.3791 470.0234,227.3851 469.7164,227.3781 C467.8944,227.3401 467.8944,227.3401 467.8814,225.6261 C467.8684,223.8431 467.8744,223.8081 469.6124,223.7981 C473.1334,223.7781 476.6554,223.8071 480.1764,223.7841 C481.8314,223.7741 481.8344,223.7401 481.8914,222.1531 C481.9054,221.7711 481.8944,221.3881 481.8944,221.0051 C481.8944,195.0531 481.8974,169.1011 481.8914,143.1491 C481.8904,140.0271 482.2014,140.3071 479.0774,140.2981 C475.8634,140.2891 472.6474,140.3161 469.4324,140.2871 C467.9034,140.2731 467.8684,140.1921 467.8824,138.5001 C467.8954,136.8531 467.9394,136.7581 469.5074,136.7461 C475.2474,136.7001 480.9894,136.7051 486.7304,136.6521 C487.9484,136.6411 489.1764,136.5281 490.3834,136.3511 C492.9404,135.9761 494.8714,134.5401 496.3734,132.4341 C496.5444,132.5151 496.7154,132.5961 496.8854,132.6781" id="Fill-5" fill="#ffffff"></path>
        <path d="M200.1923,216.3877 C202.4063,218.0067 202.4003,218.0037 201.2513,220.1137 C200.5183,221.4617 199.6903,222.7447 198.7393,223.9487 C194.6753,229.0957 189.2793,230.8687 183.0113,229.6757 C176.9503,228.5227 172.9903,224.7147 170.9813,218.8917 C170.7323,218.1717 170.5553,217.4257 170.3473,216.7007 C169.8613,216.6137 169.6663,216.9547 169.4613,217.2727 C163.8303,226.0257 155.5823,229.8257 145.4083,229.9827 C142.6473,230.0247 139.8943,229.9627 137.1933,229.3137 C130.0223,227.5917 125.0643,223.3537 122.6663,216.3237 C120.7393,210.6727 120.5783,204.8847 121.9863,199.1207 C123.7343,191.9637 128.1823,186.7677 134.3923,183.0067 C140.1683,179.5087 146.5173,177.6327 153.1253,176.5047 C158.1223,175.6507 163.1573,175.3847 168.2163,175.3997 C170.0963,175.4047 170.1313,175.3647 170.1353,173.4917 C170.1493,165.2237 170.0743,156.9547 170.1613,148.6877 C170.2403,141.1417 166.3533,136.6667 158.5183,135.7057 C153.5693,135.0987 148.7523,135.9007 144.1783,137.9397 C142.1953,138.8227 140.4243,140.0127 139.1493,141.8187 C137.1153,144.7007 137.4883,147.6207 140.1613,149.9067 C144.0383,153.2227 145.0713,159.4897 142.4583,163.8877 C141.3123,165.8167 139.6703,167.1497 137.4993,167.7157 C133.9893,168.6307 130.9093,167.2717 129.2093,163.9987 C127.4963,160.6997 127.1033,157.1177 127.5743,153.4947 C128.7293,144.6147 133.6233,138.2347 141.6943,134.7997 C154.1943,129.4817 166.1343,131.1447 176.9083,139.4327 C182.3413,143.6117 185.0523,149.4497 185.4503,156.3147 C185.5073,157.3077 185.5173,158.3037 185.5173,159.2987 C185.5213,177.9787 185.5203,196.6577 185.5213,215.3377 C185.5213,217.2527 185.5253,219.1637 186.0833,221.0267 C187.2513,224.9227 190.7683,226.2267 194.1963,224.0127 C195.8433,222.9477 196.9703,221.3947 198.0403,219.8037 C198.7623,218.7297 199.4223,217.6137 200.1923,216.3877 M170.1423,194.5057 C170.1423,189.8397 170.1143,185.1727 170.1623,180.5067 C170.1743,179.3187 169.7883,178.8797 168.5783,178.9167 C163.9183,179.0607 159.2403,178.9707 154.6293,179.7817 C146.4763,181.2157 140.6633,185.4557 138.5913,193.8007 C136.7893,201.0597 136.9963,208.3907 138.7643,215.6057 C140.2843,221.8117 144.2143,224.6297 150.5813,224.6687 C158.5953,224.7167 165.9133,219.7957 169.0793,212.2487 C169.7993,210.5317 170.1763,208.7727 170.1563,206.8987 C170.1133,202.7677 170.1423,198.6367 170.1423,194.5057" id="Fill-7" fill="#ffffff"></path>
        <path d="M470.9852,180.9913 C470.9402,192.4733 468.3582,203.2773 462.1542,213.0493 C457.9122,219.7313 452.4002,225.1263 444.8642,227.8703 C433.1092,232.1493 422.2772,230.1733 412.6982,222.0953 C406.6452,216.9913 402.5782,210.4413 399.9752,203.0383 C393.8712,185.6673 394.6552,168.6393 403.0082,152.1213 C405.3042,147.5813 408.3922,143.5823 412.2162,140.1983 C425.6002,128.3553 444.5812,129.2083 456.9732,142.2333 C463.5922,149.1913 467.3992,157.6103 469.4922,166.8753 C470.5402,171.5163 471.0712,176.2213 470.9852,180.9913 M413.0602,181.0623 C413.1322,188.2043 412.8542,195.5553 413.4742,202.8893 C413.8492,207.3233 414.4582,211.7053 416.2022,215.8523 C418.4302,221.1543 422.2312,224.5883 427.9242,225.8123 C431.0232,226.4793 434.1322,226.5613 437.2732,226.1523 C443.0562,225.4003 447.4652,222.6493 450.1642,217.3823 C451.0032,215.7443 451.6482,214.0293 452.1132,212.2453 C453.3962,207.3263 453.8472,202.2993 453.8892,197.2453 C453.9692,187.6783 453.9222,178.1103 453.9522,168.5433 C453.9622,164.6363 453.8512,160.7353 453.4132,156.8543 C452.9382,152.6623 452.1812,148.5263 450.2532,144.7093 C447.8572,139.9613 444.0502,137.0853 438.8242,136.0133 C436.4682,135.5303 434.1112,135.5113 431.7422,135.5953 C423.7642,135.8773 418.3912,139.8413 415.6932,147.3773 C414.3672,151.0823 413.8142,154.9333 413.4872,158.8303 C412.8712,166.1653 413.1182,173.5153 413.0602,181.0623" id="Fill-9" fill="#ffffff"></path>
        <path d="M205.6637,211.7406 C205.6637,206.8436 205.6597,201.9456 205.6677,197.0476 C205.6697,196.2756 205.2707,195.2926 206.7207,195.2936 C208.1557,195.2946 208.2987,195.3356 208.5537,196.9466 C209.1547,200.7336 210.0607,204.4436 211.4067,208.0356 C213.0887,212.5286 215.3527,216.6856 218.9137,219.9776 C225.4737,226.0386 233.2537,227.6726 241.7237,225.5006 C247.5857,223.9986 251.5087,219.9676 253.6047,214.2966 C255.4937,209.1866 255.5347,203.9586 254.1507,198.7206 C252.9247,194.0816 249.9617,191.0146 245.4887,189.3456 C241.6447,187.9116 237.5997,187.5636 233.5797,187.0746 C230.4667,186.6966 227.3587,186.2956 224.2847,185.6586 C215.1167,183.7616 209.5487,178.3216 207.9467,169.0186 C206.6787,161.6576 206.7667,154.3596 209.6227,147.3386 C213.0117,139.0106 218.9867,133.6706 228.0277,132.1926 C232.8227,131.4086 237.4717,132.0626 241.9387,134.0156 C244.7567,135.2476 247.3237,136.9056 249.9147,138.5316 C252.5507,140.1856 253.1467,139.8796 253.4257,136.8026 C253.4887,136.1166 253.5067,135.4276 253.5497,134.7396 C253.6427,133.2576 253.7237,133.2526 255.1377,133.2366 C256.2267,133.2236 256.3697,133.7986 256.3937,134.6726 C256.4987,138.4206 256.6507,142.1666 256.7677,145.9136 C256.8937,149.9676 257.0047,154.0216 257.1137,158.0756 C257.1307,158.7366 257.3407,159.4766 256.2347,159.5576 C254.8737,159.6576 254.4967,159.5316 254.3157,158.3026 C253.8907,155.4176 253.2897,152.5796 252.2527,149.8506 C250.4067,144.9966 247.6397,140.8226 242.9627,138.2966 C236.8477,134.9936 230.3887,134.5386 223.8857,136.8836 C215.4957,139.9076 212.6327,147.7026 213.3547,155.2966 C213.9387,161.4326 217.2907,165.3766 223.0617,167.4086 C227.5267,168.9806 232.1717,169.3316 236.8307,169.6056 C239.8117,169.7816 242.7927,169.9236 245.7247,170.5326 C254.6007,172.3766 260.4257,177.5636 262.3897,186.4866 C264.7237,197.0896 263.6987,207.3716 258.1147,216.8736 C254.0307,223.8236 248.0197,228.4116 239.9647,229.6576 C232.6297,230.7906 225.6357,229.4656 219.3287,225.3216 C218.1147,224.5236 216.9557,223.6416 215.7687,222.8026 C215.0197,222.2726 214.2997,221.6916 213.5087,221.2336 C211.0787,219.8276 209.7657,220.4856 209.4517,223.2576 C209.3057,224.5496 209.2567,225.8516 209.1427,227.1476 C209.0117,228.6426 208.8547,228.6906 207.3047,228.7116 C206.0907,228.7276 205.9607,228.1036 205.9587,227.1246 C205.9487,222.6096 205.8887,218.0936 205.8487,213.5776 C205.8437,212.9656 205.8477,212.3526 205.8477,211.7406 L205.6637,211.7406 Z" id="Fill-11" fill="#ffffff"></path>
        <path d="M381.8385,112.1312 C381.8865,115.0262 380.9845,117.7282 378.9535,119.9892 C375.8595,123.4332 371.2855,123.5022 368.0435,120.2012 C363.9065,115.9882 363.8765,108.1442 367.9805,103.9032 C371.1715,100.6062 375.8095,100.6342 378.9115,104.0202 C380.9685,106.2642 381.8595,108.9702 381.8385,112.1312" id="Fill-13" fill="#ffffff"></path>
        <path d="M152.7887,100.2674 C152.8057,99.4654 152.7577,98.6624 152.7567,97.8604 C152.7527,92.0934 152.7437,86.3264 152.7627,80.5604 C152.7677,79.1834 152.6427,77.7934 153.0067,76.4354 C153.0307,76.3424 153.0347,76.2434 153.0377,76.1464 C153.0447,75.9694 152.9417,75.8954 152.7777,75.8604 C151.6277,75.6144 150.5837,76.1014 150.0667,77.1804 C149.7867,77.7674 149.6467,78.4004 149.6477,79.0614 C149.6527,81.7624 149.6507,84.4634 149.6497,87.1644 C149.6487,87.7874 149.6447,87.7934 149.0067,87.7944 C145.7957,87.7964 142.5837,87.7934 139.3717,87.7964 C138.6207,87.7964 138.7207,87.7684 138.7207,87.0994 C138.7207,84.1804 138.7597,81.2594 138.7057,78.3404 C138.6747,76.6604 137.5337,75.6454 135.8577,75.8584 C135.7017,75.8784 135.5597,75.9124 135.5627,76.1044 C135.5707,76.7094 135.4657,77.3344 135.6577,77.9124 C135.7537,78.2004 135.7967,78.4684 135.7967,78.7564 C135.7977,85.4474 135.7977,92.1394 135.7947,98.8304 C135.7947,99.0454 135.8337,99.2634 135.7297,99.4744 C135.4237,100.0964 135.6097,100.7644 135.5617,101.4104 C135.5517,101.5474 135.6167,101.6584 135.7637,101.6494 C136.2657,101.6194 136.7717,101.7594 137.2687,101.5334 C138.2747,101.0774 138.6927,100.2294 138.7067,99.2154 C138.7457,96.2714 138.7197,93.3274 138.7217,90.3834 C138.7217,89.7574 138.7267,89.7514 139.3607,89.7494 C140.9667,89.7464 142.5727,89.7484 144.1787,89.7484 L148.7047,89.7484 C148.8507,89.7484 148.9977,89.7584 149.1427,89.7474 C149.4967,89.7194 149.7067,89.8264 149.6537,90.2314 C149.6347,90.3754 149.6497,90.5234 149.6497,90.6694 C149.6497,93.2724 149.6607,95.8764 149.6427,98.4794 C149.6377,99.0984 149.7777,99.6854 149.9917,100.2364 C150.4057,101.3044 151.1457,101.6894 152.4887,101.6604 C153.0747,101.6474 153.0897,101.6104 153.0087,101.0244 C152.9717,100.7584 152.7817,100.5594 152.7887,100.2674" id="Fill-15" fill="#ffffff"></path>
        <path d="M179.6984,91.6234 C179.4334,91.2424 179.4934,91.0254 179.9304,90.9674 C180.6624,90.8704 181.3064,90.5474 181.9384,90.2144 C183.1484,89.5784 184.0754,88.6544 184.6774,87.4064 C185.0304,86.6764 185.0764,85.8854 185.2214,85.1144 C185.2294,85.0694 185.2224,85.0234 185.2264,84.9774 C185.2284,84.9634 185.2274,84.9504 185.2284,84.9364 C185.2354,84.8484 185.2454,84.7604 185.2344,84.6714 C185.2424,83.6514 184.9184,82.8864 184.9184,82.8864 L184.9114,82.8914 C184.7264,82.1424 184.3494,81.4644 183.8854,80.8464 C182.5584,79.0764 180.6744,78.3524 178.5254,78.2934 C176.5404,78.2394 174.5644,78.6054 172.5734,78.4784 C172.3064,78.4614 172.0384,78.4734 171.7704,78.4764 C171.1224,78.4844 171.1284,78.4974 171.1364,79.1254 C171.1414,79.5914 171.3774,79.9984 171.3754,80.4764 C171.3574,86.8534 171.3634,93.2304 171.3614,99.6074 C171.3614,99.8234 171.3824,100.0374 171.2834,100.2504 C171.0804,100.6844 171.1344,101.1444 171.1604,101.5874 C171.4004,101.7064 171.6224,101.6444 171.8364,101.6614 C172.8364,101.7374 173.5124,101.2874 173.8714,100.3694 C174.1544,99.6464 174.2344,98.8694 174.2384,98.1094 C174.2724,92.3904 174.2724,86.6704 174.2834,80.9514 L174.2834,80.8054 C174.2904,80.2864 174.3054,80.3284 174.8484,80.1274 C175.2314,79.9864 175.6054,79.9624 175.9914,79.9754 C176.9304,80.0054 177.8594,79.9664 178.8054,80.1594 C180.5354,80.5134 182.1384,81.9894 182.3334,83.7504 C182.4584,84.8784 182.4064,86.0134 181.8904,87.0854 C181.2504,88.4144 180.1984,89.3114 178.8204,89.6444 C177.9314,89.8594 176.9824,90.0684 176.0264,89.9464 C175.8454,89.9234 175.6354,89.8784 175.4644,90.0474 C175.8994,90.7364 176.3174,91.4384 176.7754,92.1144 C178.4974,94.6554 180.0834,97.2864 181.8894,99.7724 C182.3454,100.4014 182.9244,100.8444 183.5894,101.2134 C184.7134,101.8344 185.9184,101.6434 187.1334,101.5764 C186.0654,100.4454 185.0094,99.3614 184.1604,98.0714 C182.7234,95.8884 181.1904,93.7694 179.6984,91.6234" id="Fill-17" fill="#ffffff"></path>
        <path d="M242.3322,100.1405 C242.3512,98.7545 242.3402,97.3685 242.3402,95.9825 L242.3022,95.9825 L242.3022,94.2315 C242.3022,93.4045 242.3022,92.5775 242.3042,91.7505 C242.3052,91.4315 242.2572,91.1475 241.8542,91.1435 C241.1482,91.1375 240.4432,91.1435 239.7372,91.1455 C239.5292,91.1455 239.4282,91.2605 239.4202,91.4615 C239.4142,91.6315 239.4152,91.8015 239.4152,91.9715 L239.4152,98.6855 C239.4152,98.8555 239.4172,99.0265 239.4152,99.1965 C239.4122,99.3595 239.3552,99.4695 239.1672,99.4875 C238.5472,99.5475 237.9612,99.8155 237.3142,99.7415 C236.9322,99.6975 236.4782,99.6365 236.1612,99.7945 C235.3372,100.2035 234.5492,99.8405 233.8372,99.6575 C232.2912,99.2595 231.1002,98.2125 230.1942,96.9155 C229.0362,95.2565 228.3172,93.4155 228.2332,91.3665 C228.1572,90.5505 228.2102,88.8575 228.2302,88.3045 C228.2832,87.4385 228.4662,86.6035 228.7082,85.7675 C229.1462,84.2515 229.8812,82.9115 230.9312,81.7445 C232.1132,80.4315 233.6862,79.9525 235.3692,79.7385 C235.6052,79.7085 235.8772,79.7005 236.0872,79.7885 C236.3952,79.9185 236.6992,79.9135 237.0132,79.9235 C238.0732,79.9545 239.1102,80.0945 240.1352,80.4045 C241.3422,80.7685 242.3012,80.1155 242.5142,78.8835 C242.5572,78.6345 242.4372,78.4745 242.2122,78.4955 C241.5962,78.5525 241.0202,78.2985 240.4202,78.2895 C238.5482,78.2635 236.6752,78.2555 234.8032,78.2545 C233.7842,78.2545 232.8052,78.5065 231.8632,78.8615 C230.0302,79.5505 228.5282,80.6795 227.3772,82.2865 C226.0482,84.1425 225.2762,86.1825 225.1232,88.4405 L225.1172,88.4215 C225.1172,88.4215 224.7792,90.9025 225.2122,92.4915 C225.2162,92.5035 225.2192,92.5105 225.2222,92.5215 C225.2792,92.7715 225.3422,93.0195 225.4052,93.2635 C225.7302,94.5205 226.2412,95.7165 226.9592,96.8225 C227.8452,98.1895 228.9452,99.3415 230.3212,100.1915 C231.9462,101.1975 233.7282,101.6685 235.6622,101.6765 C237.8192,101.6845 239.9592,101.3255 242.1172,101.4545 C242.1412,101.4555 242.1652,101.4525 242.1892,101.4535 C242.5452,101.4685 242.6012,101.2595 242.5262,100.9795 C242.4512,100.7025 242.3282,100.4485 242.3322,100.1405" id="Fill-19" fill="#ffffff"></path>
        <path d="M215.3524,77.5219 C214.7744,78.9889 214.1984,80.4569 213.6384,81.9309 C212.9914,83.6329 212.3124,85.3219 211.6514,87.0169 C210.9644,88.7769 210.2624,90.5319 209.5674,92.2889 C208.7304,94.4059 207.8824,96.5189 207.0404,98.6339 C206.6864,99.5249 206.3044,100.4019 205.8334,101.2399 C205.6704,101.5289 205.7404,101.6189 206.0554,101.6619 C206.7784,101.7599 207.3244,101.4609 207.7604,100.9159 C208.1554,100.4219 208.4354,99.8629 208.6714,99.2789 C209.4384,97.3879 210.2354,95.5079 210.9564,93.5999 C211.1254,93.1519 211.3414,93.0839 211.7384,93.0859 C213.9764,93.0969 216.2144,93.0899 218.4524,93.0919 C219.0684,93.0929 219.1364,93.1319 219.3504,93.7039 C220.0054,95.4519 220.6324,97.2109 221.3104,98.9499 C221.5204,99.4859 221.7584,100.0259 222.1334,100.4829 C223.0484,101.6019 224.2504,101.8259 225.6164,101.6029 C222.1274,93.4999 219.1394,85.2099 215.7834,77.0689 C215.4894,77.1579 215.4194,77.3519 215.3524,77.5219 M218.3034,91.3519 L211.8054,91.3519 C212.6484,89.2579 213.4794,87.2049 214.2994,85.1489 C214.5124,84.6159 214.6954,84.0719 214.8914,83.5329 C214.9344,83.4159 214.9904,83.3089 215.1364,83.3049 C215.2654,83.3019 215.2754,83.4119 215.3104,83.4989 C216.3144,86.0629 217.3194,88.6259 218.3214,91.1909 C218.3354,91.2269 218.3134,91.2769 218.3034,91.3519" id="Fill-21" fill="#ffffff"></path>
        <path d="M257.1252,99.7176 C254.4732,99.7386 251.8202,99.7296 249.1682,99.7256 C248.5682,99.7246 248.5602,99.7166 248.5592,99.1356 C248.5552,96.5806 248.5552,94.0256 248.5592,91.4706 C248.5602,90.9166 248.5692,90.9066 249.1222,90.9036 C250.4852,90.8976 251.8472,90.9016 253.2102,90.9016 C253.9642,90.9016 254.7192,90.9096 255.4732,90.9006 C256.0472,90.8936 256.1302,90.7986 256.1482,90.2086 C256.1512,90.1116 256.1482,90.0146 256.1482,89.9166 C256.1452,89.0606 256.1122,89.0276 255.2302,89.0266 C253.2102,89.0266 251.1902,89.0296 249.1712,89.0256 C248.5672,89.0246 248.5592,89.0176 248.5592,88.4336 C248.5552,85.9026 248.5562,83.3726 248.5582,80.8416 C248.5592,80.2116 248.5652,80.2046 249.1932,80.2046 C251.6752,80.2006 254.1562,80.2026 256.6382,80.2026 C256.8812,80.2026 257.1262,80.2196 257.3682,80.1976 C258.0762,80.1346 258.6142,79.4956 258.5612,78.8226 C258.5432,78.5916 258.4822,78.4506 258.2202,78.4746 C258.0992,78.4856 257.9772,78.4756 257.8552,78.4756 L246.1762,78.4756 C246.0302,78.4756 245.8842,78.4756 245.7382,78.4816 C245.4902,78.4916 245.3472,78.6396 245.4462,78.8616 C245.7682,79.5856 245.6522,80.3516 245.6552,81.0926 C245.6792,87.0296 245.6772,92.9666 245.6582,98.9036 C245.6552,99.5266 245.7342,100.1666 245.5402,100.7836 C245.3422,101.4126 245.3642,101.4526 246.0052,101.4536 C248.0012,101.4586 249.9962,101.4556 251.9912,101.4556 L257.7582,101.4556 C257.9282,101.4556 258.0982,101.4536 258.2692,101.4536 C258.3982,101.4536 258.5262,101.4266 258.5362,101.2756 C258.5582,100.9186 258.6442,100.5526 258.3392,100.2456 C257.9992,99.9046 257.6342,99.7146 257.1252,99.7176" id="Fill-23" fill="#ffffff"></path>
        <path d="M160.3219,80.2039 C162.7789,80.1969 165.2369,80.1869 167.6949,80.2119 C168.3579,80.2179 168.8159,79.9309 169.1559,79.4229 C169.5049,78.8999 169.2809,78.4789 168.6739,78.4779 C164.6839,78.4749 160.6929,78.4749 156.7029,78.4779 C156.0909,78.4779 156.0329,78.5429 156.1179,79.1529 C156.1809,79.6049 156.3329,80.0329 156.3319,80.5079 C156.3169,86.1529 156.3339,91.7979 156.3189,97.4429 C156.3159,98.5519 156.4399,99.6669 156.1259,100.7719 C155.9569,101.3659 156.0909,101.4529 156.7649,101.4539 C158.7359,101.4569 160.7069,101.4549 162.6779,101.4549 L165.2329,101.4549 C166.4009,101.4549 167.5689,101.4599 168.7369,101.4529 C169.2509,101.4499 169.3269,101.3469 169.2789,100.8539 C169.2609,100.6739 169.1899,100.5329 169.0789,100.3979 C168.7219,99.9649 168.3079,99.7129 167.7069,99.7189 C165.1039,99.7409 162.4999,99.7299 159.8959,99.7269 C159.2509,99.7259 159.2429,99.7179 159.2419,99.0929 C159.2389,96.5859 159.2389,94.0799 159.2419,91.5739 C159.2429,90.9099 159.2479,90.9029 159.9359,90.9019 C161.7859,90.8989 163.6349,90.9109 165.4839,90.8969 C166.7939,90.8869 166.6439,91.1579 166.6499,89.6799 C166.6529,89.0349 166.6409,89.0289 166.0069,89.0279 C163.9879,89.0259 161.9679,89.0299 159.9489,89.0269 C159.2449,89.0259 159.2419,89.0199 159.2419,88.2969 C159.2399,85.9609 159.2339,83.6249 159.2439,81.2889 C159.2489,80.0589 159.0579,80.2079 160.3219,80.2039" id="Fill-25" fill="#ffffff"></path>
        <path d="M209.069,80.2332 C209.999,79.9942 210.376,79.6612 210.345,78.7262 C210.33,78.2652 210.194,78.1302 209.777,78.3192 C209.397,78.4912 209.025,78.4742 208.643,78.4742 C204.751,78.4772 200.86,78.4992 196.968,78.4642 C195.645,78.4522 194.305,78.6772 192.996,78.2792 C192.862,78.2382 192.707,78.2332 192.636,78.4202 C192.396,79.0502 192.734,79.9492 193.359,80.1332 C193.906,80.2952 194.462,80.4712 195.062,80.4132 C195.36,80.3842 195.591,80.1912 195.899,80.1952 C197.139,80.2102 198.379,80.2012 199.62,80.1952 C199.88,80.1942 200.039,80.2742 200.022,80.5682 C200.012,80.7372 200.021,80.9082 200.021,81.0782 L200.021,90.7832 L200.021,100.6342 C200.021,100.7792 200.027,100.9262 200.019,101.0712 C200.004,101.3552 200.143,101.4592 200.415,101.4552 C200.999,101.4482 201.583,101.4572 202.166,101.4532 C202.892,101.4472 202.892,101.4442 202.899,100.7202 C202.9,100.5982 202.899,100.4762 202.899,100.3552 L202.899,83.8642 C202.899,82.8432 202.894,81.8212 202.9,80.8002 C202.904,80.2182 202.912,80.2032 203.445,80.2002 C204.759,80.1922 206.075,80.1552 207.385,80.2232 C207.949,80.2522 208.471,80.3862 209.069,80.2332" id="Fill-27" fill="#ffffff"></path>
        <path d="M191.1813,78.0765 C190.9743,78.1295 190.7933,78.2445 190.5613,78.2525 C189.8493,78.2785 189.3263,78.6485 189.0193,79.2715 C188.7213,79.8775 188.5633,80.5305 188.5653,81.2185 C188.5703,84.4535 188.5673,87.6885 188.5673,90.9235 L188.5673,100.5555 C188.5673,100.7255 188.5733,100.8965 188.5673,101.0665 C188.5563,101.3485 188.7013,101.4575 188.9683,101.4555 C189.5033,101.4515 190.0383,101.4565 190.5733,101.4555 C191.4403,101.4535 191.4413,101.4525 191.4413,100.5615 C191.4423,94.3345 191.4253,88.1075 191.4573,81.8805 C191.4623,80.8505 191.3073,79.7915 191.6883,78.7805 C191.7213,78.6935 191.7203,78.5875 191.7153,78.4915 C191.6963,78.1655 191.4943,77.9965 191.1813,78.0765" id="Fill-29" fill="#ffffff"></path>
    </g>
</svg>