<?xml version="1.0" encoding="UTF-8"?>
<svg width="600px" height="300px" viewBox="0 0 600 300" version="1.1" xmlns="http://www.w3.org/2000/svg" xmlns:xlink="http://www.w3.org/1999/xlink">
    <!-- Generator: Sketch 52.6 (67491) - http://www.bohemiancoding.com/sketch -->
    <title>golfLOGO</title>
    <desc>Created with Sketch.</desc>
    <g id="golfLOGO" stroke="none" stroke-width="1" fill="none" fill-rule="evenodd">
        <path d="M429.3424,227.8754 L429.3424,214.1394 C429.3424,213.0504 429.0914,212.0464 428.5884,211.2924 L445.6744,211.2924 L446.2604,214.9774 C445.4234,214.6424 444.2514,214.4744 442.8264,214.4744 L436.7124,214.4744 L436.7124,219.2484 L442.6584,219.2484 C443.8314,219.2484 444.7534,219.0814 445.4234,218.7464 L445.4234,222.8504 C445.0044,222.5154 444.2514,222.3474 443.2454,222.3474 L436.7124,222.3474 L436.7124,227.5404 L443.9144,227.5404 C444.5014,227.5404 445.4234,227.2894 446.6794,226.8704 L446.0934,230.7234 L428.5884,230.7234 C429.0914,229.8024 429.3424,228.8804 429.3424,227.8754 Z M394.6684,227.8754 L394.6684,214.1394 C394.6684,213.0504 394.4174,212.0464 393.8304,211.2924 L404.3834,211.2924 L411.9214,226.7864 L411.9214,214.1394 C411.9214,213.0504 411.5864,212.0464 411.0834,211.2924 L415.8584,211.2924 C415.2724,212.0464 415.0214,212.9674 415.0214,214.1394 L415.0214,230.7234 L405.7234,230.7234 L397.8504,214.8934 L397.8504,227.8754 C397.8504,228.9644 398.1024,229.9694 398.6884,230.7234 L393.8304,230.7234 C394.4174,229.9694 394.6684,228.9644 394.6684,227.8754 Z M373.6464,227.8754 L373.6464,214.1394 C373.6464,213.0504 373.3944,212.0464 372.8914,211.2924 L381.8534,211.2924 C381.3514,212.0464 381.0164,213.0504 381.0164,214.1394 L381.0164,227.8754 C381.0164,228.9644 381.3514,229.9694 381.8534,230.7234 L372.8914,230.7234 C373.3944,229.8024 373.6464,228.8804 373.6464,227.8754 Z M343.4104,211.2924 L361.8364,211.2924 L351.7864,227.5404 L357.5654,227.5404 C358.9054,227.5404 359.9104,227.3724 360.5804,227.0384 L360.0784,230.7234 L341.3174,230.7234 L351.2834,214.4744 L346.3424,214.4744 C344.7504,214.4744 343.5784,214.7254 342.7404,215.2284 L343.4104,211.2924 Z M320.5454,222.3474 L318.1174,216.3174 L315.3534,222.3474 L320.5454,222.3474 Z M315.6884,211.2924 L324.2314,211.2924 L331.0994,228.4614 C331.3504,229.2154 331.8524,229.9694 332.6064,230.7234 L322.8074,230.7234 C323.1424,230.3884 323.3104,229.8854 323.3104,229.3824 C323.3104,228.8804 323.1424,228.2104 322.8074,227.3724 C322.4724,226.7864 322.1374,226.1164 321.8864,225.4464 L313.9294,225.4464 L312.6734,228.1274 C312.4214,228.6294 312.3384,229.0484 312.3384,229.3824 C312.3384,229.7184 312.5054,230.2204 312.7564,230.7234 L307.2294,230.7234 C308.1504,229.7184 308.9884,228.4614 309.5744,227.1214 L316.4424,212.4644 C316.2744,211.9624 315.9394,211.6274 315.6884,211.2924 Z M276.9934,226.7034 L276.9934,215.3124 C276.9934,213.7214 277.4964,212.6324 278.5014,212.0464 C279.3394,211.5434 280.5124,211.2924 282.1034,211.2924 L296.1734,211.2924 L296.7604,215.0614 C296.0894,214.7254 295.0844,214.4744 293.6614,214.4744 L286.2904,214.4744 C285.4534,214.4744 284.8664,214.6424 284.6154,215.0614 C284.4484,215.3124 284.3644,215.8984 284.3644,216.7364 L284.3644,225.2794 C284.3644,226.1164 284.4484,226.7034 284.6154,226.9544 C284.8664,227.3724 285.4534,227.5404 286.2904,227.5404 L288.3844,227.5404 C289.0544,227.5404 289.4734,227.3724 289.6404,227.0384 C289.8084,226.7864 289.8924,226.2844 289.8924,225.6144 L289.8924,222.1804 L288.0494,222.1804 C287.2124,222.1804 286.3744,222.3474 285.7044,222.6824 L285.7044,219.1654 L298.0164,219.1654 C297.5134,219.9194 297.1784,220.8404 297.1784,222.0124 L297.1784,227.8754 C297.1784,229.0484 297.5134,229.9694 298.0164,230.7234 L291.5674,230.7234 C291.4834,230.2204 291.3154,229.5504 291.2324,228.6294 C291.1484,229.5504 290.7294,230.1364 290.0594,230.4714 C289.6404,230.6394 288.8874,230.7234 287.7984,230.7234 L282.1034,230.7234 C280.5124,230.7234 279.2554,230.4714 278.5014,229.9694 C277.4964,229.3824 276.9934,228.2944 276.9934,226.7034 Z M253.7104,222.3474 L251.2814,216.3174 L248.5174,222.3474 L253.7104,222.3474 Z M248.8524,211.2924 L257.3954,211.2924 L264.2634,228.4614 C264.5144,229.2154 265.0174,229.9694 265.7714,230.7234 L255.9714,230.7234 C256.3074,230.3884 256.4744,229.8854 256.4744,229.3824 C256.4744,228.8804 256.3074,228.2104 255.9714,227.3724 C255.6364,226.7864 255.3854,226.1164 255.0504,225.4464 L247.0944,225.4464 L245.8374,228.1274 C245.6704,228.6294 245.5024,229.0484 245.5024,229.3824 C245.5024,229.7184 245.6704,230.2204 245.9214,230.7234 L240.4774,230.7234 C241.3994,229.7184 242.1524,228.4614 242.8224,227.1214 L249.6064,212.4644 C249.4384,211.9624 249.1874,211.6274 248.8524,211.2924 Z M202.7884,227.8754 L202.7884,214.1394 C202.7884,213.0504 202.4534,212.0464 201.9504,211.2924 L211.9174,211.2924 L215.6024,222.4314 L219.4554,211.2924 L229.4214,211.2924 C228.8354,212.0464 228.5844,212.9674 228.5844,214.1394 L228.5844,227.8754 C228.5844,229.0484 228.8354,229.9694 229.4214,230.7234 L220.3764,230.7234 C220.9624,229.9694 221.2144,228.9644 221.2144,227.8754 L221.2144,215.9824 L216.1884,230.7234 L210.9124,230.7234 L205.9714,215.9824 L205.9714,227.8754 C205.9714,229.0484 206.2224,229.9694 206.8084,230.7234 L201.9504,230.7234 C202.4534,229.8854 202.7884,228.9644 202.7884,227.8754 Z" id="Fill-1" fill="#ffffff"></path>
        <path d="M128.4146,104.1713 L116.0196,104.1713 L115.0146,74.8573 C115.0146,72.8473 114.7626,71.0883 114.2606,69.5803 L128.0796,69.5803 C127.6616,70.3343 127.4096,70.9213 127.2426,71.4233 C126.9906,72.4283 126.9076,73.6853 126.9076,75.1083 L127.6616,97.0523 L140.7266,75.0243 C141.4806,73.7683 141.9836,72.5123 142.3176,71.3393 C142.4856,70.8373 142.5696,70.2503 142.5696,69.5803 L150.1076,69.5803 C148.8506,70.6693 147.2596,72.6793 145.5006,75.6953 L128.4146,104.1713 Z M146.0866,99.0623 C145.5846,100.8203 144.7476,102.4963 143.4906,104.1713 L157.1426,104.1713 C156.7236,102.7473 156.8076,100.9883 157.3096,99.0623 L163.8426,74.6893 C164.4296,72.7633 165.2666,71.0043 166.5226,69.5803 L152.7866,69.5803 C153.2056,71.0043 153.2056,72.7633 152.6196,74.6893 L146.0866,99.0623 Z M165.7696,99.0623 L172.3856,74.6893 C172.8886,72.7633 172.9716,71.0043 172.5536,69.5803 L198.6006,69.5803 L197.6796,76.1133 C196.5066,75.6113 194.8316,75.2763 192.6536,75.2763 L183.4406,75.2763 L181.1796,83.6513 L190.2256,83.6513 C191.9846,83.6513 193.4916,83.4003 194.6636,82.8973 L192.6536,90.1843 C192.1516,89.5973 191.0626,89.2623 189.5546,89.2623 L179.6726,89.2623 L177.1596,98.4763 L188.1316,98.4763 C189.0526,98.4763 190.5606,98.0573 192.6536,97.3033 L189.8896,104.1713 L163.1726,104.1713 C164.4296,102.4963 165.3506,100.8203 165.7696,99.0623 Z M203.2076,99.0623 L209.6566,75.2763 L204.4626,75.2763 C202.7046,75.2763 201.2806,75.6113 200.1916,76.3643 L202.8716,69.5803 L230.6786,69.5803 L229.6736,76.3643 C229.0026,75.6113 227.7466,75.2763 226.0716,75.2763 L220.7946,75.2763 L214.4306,99.0623 C213.8436,100.9883 213.7596,102.7473 214.2626,104.1713 L200.6106,104.1713 C201.7836,102.8313 202.6206,101.1563 203.2076,99.0623 Z M228.7516,99.0623 C228.2496,100.9883 227.3276,102.7473 226.1556,104.1713 L233.5256,104.1713 C233.0236,102.7473 233.1066,100.9883 233.6096,99.0623 L239.8076,76.1133 L244.1626,104.1713 L258.4846,104.1713 L266.4416,74.6893 C267.0276,72.6793 267.8646,70.9213 269.0376,69.5803 L261.6676,69.5803 C262.1696,71.0043 262.0856,72.7633 261.5836,74.6893 L255.4696,97.1353 L251.5326,69.5803 L235.4516,69.5803 C235.8706,71.0043 235.8706,72.7633 235.2846,74.6893 L228.7516,99.0623 Z M285.1186,69.5803 L298.1836,69.5803 L300.3616,100.1513 C300.4456,101.4073 300.8636,102.7473 301.5336,104.1713 L286.6256,104.1713 C287.2956,103.5013 287.7986,102.6633 288.0496,101.8263 C288.3006,100.8203 288.3846,99.6483 288.2166,98.2243 C288.0496,97.1353 287.9656,95.9633 287.7986,94.7913 L275.6536,94.7913 L272.5546,99.5643 C271.9686,100.4023 271.5506,101.1563 271.3826,101.7423 C271.2156,102.4123 271.2156,103.1663 271.2986,104.1713 L263.0066,104.1713 C264.9336,102.3283 266.6926,100.1513 268.3676,97.6383 L285.7886,71.6753 C285.7046,70.8373 285.4526,70.1663 285.1186,69.5803 Z M287.2956,89.2623 L286.4586,78.5423 L279.4236,89.2623 L287.2956,89.2623 Z M307.4806,99.0623 L314.0136,74.6893 C314.5996,72.7633 314.5996,71.0043 314.1806,69.5803 L329.3396,69.5803 L329.6756,89.3463 L340.8146,69.5803 L355.9736,69.5803 C354.8016,70.9213 353.8806,72.6793 353.3776,74.6893 L346.7606,99.0623 C346.2586,101.0723 346.1746,102.8313 346.6776,104.1713 L332.9416,104.1713 C334.1136,102.7473 335.0356,100.9883 335.5376,99.0623 L341.2336,77.8723 L326.4926,104.1713 L318.5366,104.1713 L318.0336,77.8723 L312.3386,99.0623 C311.7526,101.0723 311.7526,102.8313 312.1706,104.1713 L304.8006,104.1713 C306.0566,102.6633 306.9786,100.9883 307.4806,99.0623 Z" id="Fill-3" fill="#ffffff"></path>
        <path d="M451.7462,177.958 C450.6582,182.732 449.9042,186.585 449.9042,189.6 C449.9042,191.945 450.4912,194.709 451.5792,197.808 L398.6472,197.808 C401.0752,194.876 402.9182,192.532 403.8392,190.689 C405.5142,187.506 407.1902,183.318 408.4462,177.958 L422.7672,117.823 L404.6772,117.823 L408.8652,100.905 L427.0402,100.905 L429.0502,92.781 C430.7252,85.997 433.9912,80.636 438.5972,76.616 C444.1262,71.842 451.0772,69.581 459.3692,69.581 L514.5612,69.581 L512.1332,89.682 C507.9452,87.588 503.1712,86.499 497.4762,86.499 L481.2282,86.499 C476.4552,86.499 473.6902,88.509 472.6022,92.362 L470.4242,100.905 L505.0132,100.905 L500.7432,117.823 L466.1532,117.823 L451.7462,177.958 Z M362.8842,89.43 L341.2762,177.958 C339.9352,183.318 338.3442,187.506 336.6692,190.689 C335.7482,192.532 333.9052,194.876 331.4762,197.808 L384.4922,197.808 C383.4042,194.709 382.8172,191.945 382.8172,189.6 C382.8172,186.585 383.4042,182.732 384.6602,177.958 L411.2102,69.581 L363.0512,69.581 C364.1402,72.764 364.7262,75.443 364.7262,77.872 C364.7262,80.804 364.1402,84.656 362.8842,89.43 Z M161.5402,189.181 L161.1212,189.181 C158.0222,194.876 153.4162,197.808 147.7202,197.808 L113.7162,197.808 C99.1432,197.808 91.7732,191.945 91.7732,180.387 C91.7732,177.623 92.1922,174.44 93.1132,171.006 L101.4042,138.259 C106.0112,120.419 117.2342,111.374 135.2412,111.374 L169.4132,111.374 C173.6842,111.374 176.4482,112.128 178.0392,113.384 C179.7142,114.892 180.6362,117.32 180.8032,120.587 L181.2222,120.587 L185.5772,111.374 L229.0452,111.374 C226.2822,115.227 224.7742,117.655 224.2722,118.577 C222.0102,122.765 220.1672,127.957 218.4922,134.406 L202.7462,197.808 C199.7312,209.785 195.3762,218.244 189.6812,223.186 C183.9862,228.211 176.0292,230.556 165.5602,230.556 L85.7422,230.556 L88.1712,208.864 C94.5372,211.962 100.8182,213.638 107.1002,213.638 L144.4542,213.638 C148.9772,213.638 152.3272,212.883 154.0022,211.292 C155.5932,209.617 157.2682,206.1 158.6082,200.739 L161.5402,189.181 Z M174.9402,135.327 C175.2752,133.987 175.5262,133.066 175.5262,132.145 C175.5262,129.632 173.8512,128.292 170.3342,128.292 L153.4162,128.292 C149.3952,128.292 146.6312,130.721 145.5432,135.327 L135.7432,173.938 C135.4092,175.194 135.2412,176.116 135.2412,177.037 C135.2412,179.633 136.8332,180.889 140.3502,180.889 L157.2682,180.889 C161.3722,180.889 164.0522,178.545 165.2252,173.938 L174.9402,135.327 Z M333.4862,171.761 C331.0572,181.141 327.7912,187.758 323.3522,191.61 C318.5782,195.798 311.4592,197.808 302.0782,197.808 L234.3222,197.808 C220.7542,197.808 213.9702,193.034 213.9702,183.318 C213.9702,180.22 214.6392,176.283 215.8122,171.761 L224.4392,137.505 C226.7842,128.125 230.1342,121.508 234.7412,117.488 C239.3472,113.384 246.4662,111.374 255.8472,111.374 L323.5202,111.374 C337.1712,111.374 343.9552,116.148 343.9552,125.947 C343.9552,129.046 343.2022,132.899 342.1132,137.505 L333.4862,171.761 Z M258.6112,173.938 C258.2752,175.194 258.1082,176.116 258.1082,177.037 C258.1082,179.633 259.6992,180.889 263.2172,180.889 L281.2242,180.889 C285.4952,180.889 288.4272,178.545 289.5162,173.938 L299.3152,135.327 C299.6502,133.987 299.8172,133.066 299.8172,132.145 C299.8172,129.632 297.9752,128.292 294.2902,128.292 L276.2832,128.292 C272.2622,128.292 269.4982,130.721 268.4102,135.327 L258.6112,173.938 Z" id="Fill-5" fill="#ffffff"></path>
    </g>
</svg>