<?xml version="1.0" encoding="UTF-8"?>
<svg width="150px" height="100px" viewBox="0 0 150 100" version="1.1" xmlns="http://www.w3.org/2000/svg" xmlns:xlink="http://www.w3.org/1999/xlink">
    <!-- Generator: Sketch 52.6 (67491) - http://www.bohemiancoding.com/sketch -->
    <title>PVlogo</title>
    <desc>Created with Sketch.</desc>
    <g id="PVlogo" stroke="none" stroke-width="1" fill="none" fill-rule="evenodd">
        <g id="Group-15" transform="translate(52.000000, 29.000000)" fill="#ffffff">
            <path d="M8.42307692,16.7320615 C5.20153846,16.7320615 0.917538462,14.6579077 0.917538462,8.5776 C0.917538462,2.31636923 5.63446154,0.422215385 8.448,0.422215385 C10.6929231,0.422215385 12.1892308,1.05729231 12.6507692,1.35267692 L11.436,3.58283077 C10.8212308,3.28375385 9.76615385,3.10283077 9.20215385,3.10283077 C6.79292308,3.10283077 4.812,5.35144615 4.812,8.55636923 C4.812,11.2176 6.61846154,13.8954462 9.17261538,13.8954462 C10.0476923,13.8954462 10.7326154,13.7486769 11.3473846,13.4108308 L12.636,15.7923692 C11.7009231,16.4191385 9.95169231,16.7320615 8.21723077,16.7320615" id="Fill-1"></path>
            <path d="M45.0486462,16.3921846 L45.0486462,5.41772308 C45.0486462,3.67126154 43.7683385,3.29187692 43.0095692,3.29187692 C42.2286462,3.29187692 41.5981846,3.54295385 41.1744923,4.05064615 L41.1744923,16.3921846 L37.2597231,16.3921846 L37.2597231,5.35495385 C37.2597231,4.73741538 37.0658769,4.23710769 36.6763385,3.85956923 C36.2886462,3.47833846 35.7237231,3.29187692 34.9852615,3.29187692 C34.1831077,3.29187692 33.5969538,3.4848 33.3477231,3.58264615 L33.3477231,16.3921846 L29.4643385,16.3921846 L29.4643385,1.19556923 C30.8978769,0.800492308 32.8252615,0.518953846 34.0548,0.443261538 C35.4624923,0.3528 37.0658769,0.590030769 37.7701846,0.8928 C38.4717231,1.1928 39.0237231,1.56756923 39.4234154,2.01433846 C39.8748,1.58695385 40.4674154,1.21587692 41.2068,0.906646154 C41.9461846,0.598338462 42.8978769,0.443261538 44.0591077,0.443261538 C45.1566462,0.443261538 46.7397231,0.842953846 47.7006462,1.89710769 C48.1095692,2.34941538 48.9504923,3.37033846 48.9504923,5.41772308 L48.9504923,16.3921846 L45.0486462,16.3921846 Z" id="Fill-3"></path>
            <path d="M10.8479077,30.2653846 C10.8479077,28.9204615 10.3014462,27.0973846 5.97867692,27.0973846 L5.44329231,27.0973846 L5.44329231,32.8093846 C6.67467692,33.126 8.38883077,33.0272308 9.44021538,32.4752308 C10.2691385,32.0349231 10.8479077,31.2761538 10.8479077,30.2653846 M10.3503692,22.2826154 C10.3503692,20.8426154 9.30267692,20.1207692 7.33744615,20.1207692 C6.32483077,20.1207692 5.91129231,20.2444615 5.44329231,20.322 L5.44329231,25.1229231 L5.97867692,25.1229231 C9.59990769,25.1229231 10.3503692,23.6921538 10.3503692,22.2826154 M13.7556,33.1970769 C12.5048308,34.5530769 10.2672923,35.4078462 6.92483077,35.4078462 C4.36513846,35.4078462 1.53590769,35.1013846 1.53590769,35.1013846 L1.53590769,18.0272308 C1.53590769,18.0272308 4.09929231,17.7346154 5.94452308,17.7346154 C10.3485231,17.7346154 11.3925231,18.5035385 12.1854462,18.9909231 C13.2894462,19.6767692 14.2485231,20.7078462 14.2485231,22.2170769 C14.2485231,24.9438462 11.6989846,25.6573846 10.9725231,25.9583077 L10.9725231,26.0072308 C12.1909846,26.3543077 13.6097538,27.0235385 14.3472923,28.4423077 C15.0359077,29.7558462 14.6159077,32.2675385 13.7556,33.1970769" id="Fill-5"></path>
            <path d="M24.2073231,26.8128923 C21.1482462,26.8128923 19.7017846,27.8762769 19.7017846,29.9827385 C19.7017846,31.6867385 20.9350154,32.9845846 22.8587077,32.9845846 C23.6091692,32.9845846 24.2073231,32.7916615 24.2073231,32.7916615 L24.2073231,26.8128923 Z M28.1248615,35.0975077 C28.1248615,35.0975077 25.6620923,35.4085846 23.9839385,35.4085846 C18.2377846,35.4085846 15.8488615,33.3658154 15.8488615,29.9827385 C15.8488615,27.3030462 18.5340923,24.7996615 24.2036308,24.7996615 L24.2036308,24.0861231 C24.2036308,23.2867385 23.5547077,21.9473538 21.3134769,21.9473538 C19.9039385,21.9473538 18.7537846,22.4024308 18.1713231,22.6922769 C18.1547077,22.6322769 16.8910154,20.3061231 16.8910154,20.3061231 C17.7947077,19.7938154 19.6860923,19.1301231 22.2134769,19.1301231 C25.0344,19.1301231 28.1248615,20.6698154 28.1248615,24.0861231 L28.1248615,35.0975077 Z" id="Fill-7"></path>
            <path d="M38.8088308,35.1015692 L38.8088308,25.4388 C38.8088308,23.4135692 38.5005231,22.4120308 36.8491385,22.0418769 C36.0682154,21.8692615 35.1054462,22.0621846 34.3337538,22.2680308 L34.3337538,35.1015692 L30.4614462,35.1015692 L30.4614462,19.8911077 C30.4614462,19.8911077 32.8863692,19.2994154 35.0159077,19.1858769 C37.9180615,19.0400308 39.3626769,19.3898769 40.7971385,20.3341846 C42.1679077,21.2388 42.6885231,22.8264923 42.6885231,24.0338769 L42.6885231,35.1015692 L38.8088308,35.1015692 Z" id="Fill-9"></path>
            <path d="M23.5799077,8.5812 C23.5799077,12.7276615 21.7411385,13.9110462 20.1396,13.9110462 C18.5426769,13.9110462 16.5977538,12.7276615 16.5977538,8.5812 C16.5977538,4.43566154 18.5426769,3.25043077 20.1396,3.25043077 C21.7411385,3.25043077 23.5799077,4.43566154 23.5799077,8.5812 M27.4992923,8.5812 C27.4992923,3.47012308 24.8057538,0.424892308 20.1396,0.424892308 C15.4780615,0.424892308 12.6811385,3.47012308 12.6811385,8.5812 C12.6811385,13.6941231 15.4780615,16.7356615 20.1396,16.7356615 C24.8057538,16.7356615 27.4992923,13.6941231 27.4992923,8.5812" id="Fill-11"></path>
            <polygon id="Fill-13" points="54.1261846 35.1015692 48.9283385 28.9741846 48.8941846 28.9741846 48.9449538 35.1015692 45.0431077 35.1015692 45.0431077 18.0431077 48.9449538 18.0431077 48.8941846 24.6015692 48.9504923 24.6015692 53.5021846 19.4923385 58.8228 19.4923385 51.5646462 26.7772615 59.3351077 35.1015692"></polygon>
        </g>
        <g id="Group-26" transform="translate(17.000000, 23.000000)" fill="#ffffff">
            <path d="M10.88133,8.572376 C10.88133,4.635696 8.908305,3.695456 7.55503,3.624616 C7.050905,3.597936 6.18788,3.649456 6.18788,3.649456 L6.18788,13.468616 L6.93343,13.468616 C8.775105,13.468616 10.88133,11.983736 10.88133,8.572376 M16.27038,8.677256 C16.27038,11.574336 14.861605,13.789696 14.019855,14.572616 C12.42238,16.059336 10.89428,16.574536 6.910305,16.507376 L6.18788,16.507376 L6.18788,22.777176 L0.70078,22.777176 L0.70078,1.085416 C0.70078,1.085416 3.680205,0.734896 6.81503,0.719256 C11.233755,0.694416 12.96443,1.505856 14.26868,2.741416 C15.253805,3.677976 16.27038,5.969696 16.27038,8.677256" id="Fill-22"></path>
            <path d="M29.16821,22.777544 L24.53766,22.777544 L16.76211,1.032424 L23.36846,1.032424 C23.36846,1.032424 26.989835,13.936344 27.034235,14.232584 L27.067535,14.232584 C27.108235,13.936344 30.88316,1.032424 30.88316,1.032424 L36.911385,1.032424 L29.16821,22.777544 Z" id="Fill-24"></path>
        </g>
        <g id="Group-67" transform="translate(52.000000, 70.000000)" fill="#ffffff">
            <polygon id="Fill-48" points="0.192153333 0.5950875 2.49635333 0.5950875 2.49635333 1.2845875 1.76382 1.2845875 3.05577556 4.9613375 3.06397556 4.9613375 4.37233111 1.2845875 3.67806444 1.2845875 3.67806444 0.5950875 5.85653111 0.5950875 5.85653111 1.2845875 5.43286444 1.2845875 3.62339778 6.0795875 2.40068667 6.0795875 0.606708889 1.2845875 0.192153333 1.2845875"></polygon>
            <path d="M6.68391111,1.38425 L7.74626667,1.38425 L7.74626667,0.44975 L6.68391111,0.44975 L6.68391111,1.38425 Z M6.11811111,6.0795 L6.11811111,5.427625 L6.68391111,5.427625 L6.68391111,2.655625 L6.11811111,2.655625 L6.11811111,2.004625 L7.74626667,2.004625 L7.74626667,5.427625 L8.23917778,5.427625 L8.23917778,6.0795 L6.11811111,6.0795 Z" id="Fill-50"></path>
            <path d="M11.5899711,3.6507625 C11.5899711,3.5396375 11.5753933,3.4171375 11.5453267,3.2867625 C11.51526,3.1546375 11.4706156,3.0330125 11.4104822,2.9253875 C11.3494378,2.8160125 11.2665267,2.7241375 11.16266,2.6506375 C11.0597044,2.5771375 10.93306,2.5403875 10.7836378,2.5403875 C10.6150822,2.5403875 10.4720378,2.5736375 10.3617933,2.6392625 C10.2497267,2.7057625 10.1577044,2.7932625 10.0866378,2.8982625 C10.0137489,3.0050125 9.95999333,3.1231375 9.92263778,3.2561375 C9.88528222,3.3873875 9.86250444,3.5203875 9.84974889,3.6507625 L11.5899711,3.6507625 Z M9.82788222,4.2492625 C9.82788222,4.3962625 9.84246,4.5441375 9.87434889,4.6928875 C9.90623778,4.8407625 9.96181556,4.9755125 10.0383489,5.0945125 C10.1167044,5.2152625 10.2160156,5.3132625 10.3408378,5.3893875 C10.46566,5.4663875 10.6187267,5.5040125 10.8000378,5.5040125 C11.0132378,5.5040125 11.1881711,5.4418875 11.32666,5.3167625 C11.4633267,5.1925125 11.5526156,5.0323875 11.5899711,4.8381375 L12.6022156,4.8381375 C12.5867267,5.0630125 12.5202156,5.2581375 12.4035933,5.4235125 C12.28606,5.5906375 12.1402822,5.7288875 11.9671711,5.8417625 C11.7949711,5.9546375 11.6009044,6.0386375 11.3849711,6.0911375 C11.1699489,6.1445125 10.9567489,6.1716375 10.74446,6.1716375 C10.6059711,6.1716375 10.4547267,6.1523875 10.2889044,6.1173875 C10.1258156,6.0815125 9.98094889,6.0351375 9.86068222,5.9800125 C9.71946,5.9187625 9.60010444,5.8470125 9.50079333,5.7656375 C9.39966,5.6825125 9.30308222,5.5845125 9.21288222,5.4663875 C9.04341556,5.2572625 8.92223778,5.0253875 8.85481556,4.7733875 C8.78557111,4.5205125 8.75003778,4.2641375 8.75003778,4.0025125 C8.75003778,3.7225125 8.79103778,3.4556375 8.87303778,3.2027625 C8.95594889,2.9498875 9.07894889,2.7276375 9.24112667,2.5368875 C9.40330444,2.3461375 9.60557111,2.1930125 9.84974889,2.0775125 C10.0948378,1.9620125 10.3763711,1.9042625 10.6970822,1.9042625 C10.9831711,1.9042625 11.2555933,1.9471375 11.5097933,2.0276375 C11.7658156,2.1090125 11.9899489,2.2498875 12.1858378,2.4485125 C12.2733044,2.5360125 12.3443711,2.6348875 12.4035933,2.7477625 C12.4600822,2.8597625 12.5083711,2.9770125 12.5439044,3.1003875 C12.5776156,3.2228875 12.6040378,3.3471375 12.62226,3.4748875 C12.6413933,3.6026375 12.6523267,3.7225125 12.6577933,3.8353875 C12.66326,3.8957625 12.6687267,3.9570125 12.6732822,4.0156375 C12.6787489,4.0733875 12.6769267,4.1320125 12.6669044,4.1871375 C12.6669044,4.1976375 12.6650822,4.2081375 12.6614378,4.2177625 C12.6596156,4.2282625 12.6577933,4.2387625 12.6577933,4.2492625 L9.82788222,4.2492625 Z" id="Fill-52"></path>
            <path d="M15.9674956,5.007625 C15.9674956,5.12925 15.9565622,5.2465 15.9356067,5.3585 C15.91374,5.471375 15.8763844,5.574625 15.82354,5.6735 C15.7697844,5.770625 15.70054,5.8555 15.6112511,5.926375 C15.5246956,5.99725 15.4144511,6.05325 15.2805178,6.0935 C15.2613844,6.104875 15.2285844,6.113625 15.1894067,6.11975 C15.1493178,6.1285 15.1083178,6.13725 15.0618511,6.14425 C15.0172067,6.15125 14.9743844,6.15825 14.9333844,6.1635 C14.8942067,6.16875 14.8623178,6.171375 14.8431844,6.171375 C14.7466067,6.171375 14.6646067,6.164375 14.5953622,6.15125 C14.5261178,6.139 14.44594,6.11975 14.3548289,6.0935 C14.1698733,6.03925 14.0259178,5.950875 13.9247844,5.833625 C13.8245622,5.71725 13.7534956,5.571125 13.7088511,5.396125 C13.6988289,5.355875 13.69154,5.30425 13.6860733,5.240375 C13.6806067,5.1765 13.6787844,5.110875 13.6787844,5.04525 L13.6787844,4.84925 L13.6787844,4.685625 L13.6787844,2.655625 L13.0492067,2.655625 L13.0492067,2.004625 L13.6787844,2.004625 L13.6787844,1.308125 L14.7393178,0.9625 L14.7393178,2.004625 L15.7998511,2.004625 L15.7998511,2.655625 L14.7393178,2.655625 L14.7393178,5.20625 C14.7393178,5.2465 14.7502511,5.296375 14.7721178,5.355 C14.7930733,5.4145 14.8249622,5.450375 14.8659622,5.466125 C14.9889622,5.511625 15.0809844,5.5125 15.1420289,5.4705 C15.2021622,5.42675 15.2468067,5.361125 15.2732289,5.2745 C15.3005622,5.18875 15.3124067,5.093375 15.3124067,4.990125 L15.3124067,4.731125 L15.9674956,4.731125 L15.9674956,5.007625 Z" id="Fill-53"></path>
            <path d="M17.9285711,2.6791625 C18.1955267,2.1629125 18.6210156,1.9039125 19.2059489,1.9039125 C19.3699489,1.9039125 19.5230156,1.9266625 19.6633267,1.9695375 C19.8063711,2.0132875 19.9302822,2.0727875 20.0387044,2.1462875 C20.1480378,2.2206625 20.2364156,2.3029125 20.30566,2.3947875 C20.3758156,2.4866625 20.4231933,2.5785375 20.4505267,2.6712875 C20.4751267,2.7780375 20.4915267,2.8751625 20.4979044,2.9617875 C20.5033711,3.0492875 20.5051933,3.1350375 20.5051933,3.2225375 L20.5051933,5.4275375 L21.0318156,5.4275375 L21.0318156,6.0794125 L18.9499267,6.0794125 L18.9499267,5.4275375 L19.44466,5.4275375 L19.44466,3.5970375 C19.44466,3.4964125 19.4428378,3.4027875 19.4410156,3.3179125 C19.4373711,3.2339125 19.4218822,3.1402875 19.3899933,3.0387875 C19.3508156,2.9162875 19.2824822,2.8130375 19.1813489,2.7334125 C19.0802156,2.6502875 18.96086,2.6091625 18.8232822,2.6091625 C18.6310378,2.6091625 18.4797933,2.6494125 18.3677267,2.7281625 C18.25566,2.8077875 18.1745711,2.9084125 18.1208156,3.0300375 C18.06706,3.1534125 18.0333489,3.2881625 18.0215044,3.4360375 C18.0087489,3.5856625 18.00146,3.7291625 18.00146,3.8726625 L18.00146,5.4275375 L18.5125933,5.4275375 L18.5125933,6.0794125 L16.3824156,6.0794125 L16.3824156,5.4275375 L16.9409267,5.4275375 L16.9409267,2.6616625 L16.3824156,2.6616625 L16.3824156,2.0115375 L17.9285711,2.0115375 L17.9285711,2.6791625 Z" id="Fill-54"></path>
            <path d="M23.5518578,4.1950125 C23.4151911,4.1950125 23.28308,4.2055125 23.1564356,4.2256375 C23.0343467,4.2475125 22.92228,4.2833875 22.8257022,4.3358875 C22.7318578,4.3901375 22.6553244,4.4662625 22.5979244,4.5625125 C22.5432578,4.6587625 22.5159244,4.7847625 22.5159244,4.9378875 C22.5159244,5.0962625 22.5660356,5.2310125 22.6671689,5.3412625 C22.7692133,5.4497625 22.9040578,5.5040125 23.0735244,5.5040125 C23.2657689,5.5040125 23.4233911,5.4655125 23.5482133,5.3858875 C23.6730356,5.3071375 23.7705244,5.2030125 23.8434133,5.0761375 C23.91448,4.9483875 23.9664133,4.8057625 23.9983022,4.6508875 C24.0301911,4.4951375 24.0502356,4.3428875 24.05388,4.1950125 L23.5518578,4.1950125 Z M24.13588,5.4270125 C24.01288,5.6886375 23.8333911,5.8776375 23.5965022,5.9948875 C23.3596133,6.1112625 23.0981244,6.1716375 22.8120356,6.1716375 C22.6617022,6.1716375 22.5177467,6.1506375 22.3756133,6.1130125 C22.2353022,6.0762625 22.1086578,6.0237625 21.9929467,5.9572625 C21.8772356,5.8916375 21.7815689,5.8128875 21.7013911,5.7245125 C21.6212133,5.6352625 21.5711022,5.5372625 21.5519689,5.4305125 C21.5091467,5.2975125 21.4827244,5.1933875 21.4717911,5.1128875 C21.4590356,5.0350125 21.4553911,4.9641375 21.4553911,4.9037625 C21.4553911,4.7287625 21.4891022,4.5633875 21.5583467,4.4032625 C21.6285022,4.2422625 21.73328,4.1040125 21.8717689,3.9876375 C21.9255244,3.9412625 21.9929467,3.8975125 22.0731244,3.8572625 C22.1533022,3.8161375 22.2407689,3.7793875 22.3309689,3.7461375 C22.42208,3.7128875 22.51228,3.6866375 22.6033911,3.6665125 C22.69268,3.6463875 22.7737689,3.6350125 22.8439244,3.6350125 C22.9432356,3.6306375 23.0443689,3.6236375 23.1500578,3.6131375 C23.2530133,3.6026375 23.3559689,3.5965125 23.4571022,3.5965125 C23.5518578,3.5965125 23.6475244,3.6008875 23.74228,3.6087625 C23.8379467,3.6175125 23.9345244,3.6236375 24.0301911,3.6280125 C24.0465911,3.5046375 24.0520578,3.3777625 24.0429467,3.2473875 C24.0356578,3.1161375 24.0074133,2.9953875 23.9591244,2.8886375 C23.9117467,2.7801375 23.8379467,2.6900125 23.74228,2.6208875 C23.6475244,2.5535125 23.5181467,2.5176375 23.3523244,2.5176375 C23.11908,2.5176375 22.94688,2.5867625 22.8348133,2.7241375 C22.7227467,2.8632625 22.6689911,3.0391375 22.67628,3.2535125 L21.6157467,3.2535125 C21.6193911,3.0023875 21.6695022,2.7923875 21.7615244,2.6208875 C21.85628,2.4493875 21.9801911,2.3111375 22.1369022,2.2035125 C22.2936133,2.0967625 22.4749244,2.0197625 22.6835689,1.9742625 C22.88948,1.9278875 23.11088,1.9042625 23.3450356,1.9042625 C23.5090356,1.9042625 23.6712133,1.9165125 23.8279244,1.9392625 C23.9846356,1.9620125 24.1322356,2.0048875 24.2707244,2.0652625 C24.4073911,2.1273875 24.5322133,2.2078875 24.6406356,2.3111375 C24.7490578,2.4126375 24.8401689,2.5421375 24.9167022,2.7022625 C24.9485911,2.7731375 24.9704578,2.8343875 24.9841244,2.8860125 C24.99688,2.9358875 25.0078133,3.0023875 25.0196578,3.0837625 C25.0305911,3.1712625 25.03788,3.2578875 25.0451689,3.3453875 C25.0488133,3.4320125 25.0515467,3.5186375 25.0515467,3.6043875 L25.0515467,5.4357625 L25.6018578,5.4357625 L25.6018578,6.0788875 L24.13588,6.0788875 L24.13588,5.4270125 Z" id="Fill-55"></path>
            <path d="M27.5468067,2.6714625 C27.81194,2.1613375 28.2565622,1.9040875 28.8797622,1.9040875 C29.1658511,1.9040875 29.4100289,1.9618375 29.6095622,2.0773375 C29.8081844,2.1928375 29.9576067,2.3897125 30.0596511,2.6714625 C30.1771844,2.4107125 30.3420956,2.2173375 30.5580289,2.0922125 C30.7730511,1.9662125 31.0208733,1.9040875 31.2960289,1.9040875 C31.91194,1.9040875 32.3264956,2.1613375 32.5396956,2.6714625 C32.5934511,2.7983375 32.6180511,2.9103375 32.6144067,3.0083375 C32.6134956,3.1045875 32.6116733,3.2034625 32.6116733,3.3075875 L32.6116733,5.4268375 L33.1310067,5.4268375 L33.1310067,6.0795875 L31.0491178,6.0795875 L31.0491178,5.4268375 L31.55114,5.4268375 L31.55114,3.6129625 C31.55114,3.5105875 31.5474956,3.4038375 31.53474,3.2918375 C31.5238067,3.1789625 31.4955622,3.0765875 31.45274,2.9812125 C31.4062733,2.8867125 31.3424956,2.8088375 31.2604956,2.7475875 C31.1784956,2.6863375 31.0627844,2.6548375 30.9224733,2.6548375 C30.6072289,2.6548375 30.3849178,2.7939625 30.2518956,3.0695875 C30.1826511,3.2017125 30.1416511,3.3285875 30.13254,3.4519625 C30.1197844,3.5735875 30.1143178,3.7100875 30.1143178,3.8579625 L30.1143178,5.4268375 L30.6108733,5.4268375 L30.6108733,6.0795875 L28.5681622,6.0795875 L28.5681622,5.4268375 L29.0556067,5.4268375 L29.0556067,3.5429625 C29.0556067,3.4257125 29.05014,3.3198375 29.0437622,3.2262125 C29.0346511,3.1317125 29.0045844,3.0302125 28.9508289,2.9234625 C28.9080067,2.8412125 28.8424067,2.7773375 28.7512956,2.7274625 C28.6610956,2.6802125 28.5699844,2.6548375 28.4806956,2.6548375 C28.2565622,2.6548375 28.08254,2.7152125 27.9540733,2.8324625 C27.8265178,2.9488375 27.7335844,3.1045875 27.6752733,3.2979625 C27.64794,3.4012125 27.6324511,3.5009625 27.6269844,3.5972125 C27.6215178,3.6943375 27.6196956,3.7940875 27.6196956,3.8955875 L27.6196956,5.4268375 L28.1290067,5.4268375 L28.1290067,6.0795875 L26.0006511,6.0795875 L26.0006511,5.4268375 L26.5591622,5.4268375 L26.5591622,2.6548375 L26.0006511,2.6548375 L26.0006511,2.0047125 L27.5468067,2.0047125 L27.5468067,2.6714625 Z" id="Fill-56"></path>
            <path d="M37.4924956,1.2922875 L37.4924956,3.2750375 L38.0428067,3.2750375 C38.1175178,3.2750375 38.1940511,3.2741625 38.2705844,3.2715375 C38.3462067,3.2697875 38.4218289,3.2610375 38.4928956,3.2452875 C38.5657844,3.2304125 38.6332067,3.2067875 38.7006289,3.1770375 C38.7662289,3.1464125 38.8290956,3.1026625 38.8874067,3.0475375 C38.9894511,2.9460375 39.0568733,2.8261625 39.0924067,2.6887875 C39.1261178,2.5505375 39.1425178,2.4131625 39.1425178,2.2775375 C39.1425178,2.1436625 39.1224733,2.0054125 39.0778289,1.8610375 C39.0368289,1.7157875 38.9621178,1.6002875 38.8555178,1.5127875 C38.7288733,1.4016625 38.6013178,1.3360375 38.4728511,1.3185375 C38.3452956,1.3010375 38.2022511,1.2922875 38.0428067,1.2922875 L37.4924956,1.2922875 Z M35.7285844,6.0794125 L35.7285844,5.3899125 L36.4000733,5.3899125 L36.4000733,1.2844125 L35.7285844,1.2844125 L35.7285844,0.5949125 L38.4263844,0.5949125 C38.6915178,0.5949125 38.9356956,0.6202875 39.1580067,0.6719125 C39.38214,0.7235375 39.5944289,0.8442875 39.7894067,1.0402875 C39.9534067,1.2021625 40.0745844,1.3902875 40.1511178,1.6055375 C40.2294733,1.8207875 40.2686511,2.0421625 40.2686511,2.2722875 C40.2686511,2.5479125 40.2221844,2.8016625 40.1347178,3.0300375 C40.0481622,3.2610375 39.8932733,3.4666625 39.66914,3.6504125 C39.5743844,3.7274125 39.4677844,3.7877875 39.3502511,3.8315375 C39.2327178,3.8735375 39.1133622,3.9067875 38.9912733,3.9269125 C38.8700956,3.9479125 38.7434511,3.9584125 38.6131622,3.9619125 C38.4819622,3.9636625 38.35714,3.9654125 38.2414289,3.9654125 L37.4924956,3.9654125 L37.4924956,5.3899125 L38.3288956,5.3899125 L38.3288956,6.0794125 L35.7285844,6.0794125 Z" id="Fill-57"></path>
            <path d="M43.7688667,5.396475 C43.6622667,5.6581 43.4964444,5.851475 43.2704889,5.9801 C43.0445333,6.106975 42.7885111,6.171725 42.5015111,6.171725 C42.1762444,6.171725 41.9111111,6.096475 41.7024667,5.945975 C41.4965556,5.7946 41.3562444,5.611725 41.2815333,5.396475 C41.2542,5.172475 41.2387111,5.011475 41.2332444,4.909975 C41.2277778,4.8111 41.2241333,4.7341 41.2241333,4.6781 L41.2241333,2.6551 L40.6829333,2.6551 L40.6829333,2.004975 L42.2864889,2.004975 L42.2864889,4.432225 C42.2864889,4.55035 42.2883111,4.671975 42.2937778,4.796225 C42.2992444,4.922225 42.3311333,5.0386 42.3894444,5.144475 C42.4377333,5.2416 42.5124444,5.31335 42.6135778,5.35885 C42.7138,5.405225 42.8185778,5.4271 42.9233556,5.4271 C43.0946444,5.4271 43.2349556,5.3781 43.3452,5.273975 C43.4572667,5.172475 43.5447333,5.049975 43.6012222,4.90735 C43.6549778,4.77435 43.6832222,4.628225 43.6886889,4.470725 C43.6941556,4.313225 43.6978,4.164475 43.6978,4.026225 L43.6978,2.6551 L43.1228889,2.6551 L43.1228889,2.004975 L44.7583333,2.004975 L44.7583333,5.4271 L45.3168444,5.4271 L45.3168444,6.078975 L43.7688667,6.078975 L43.7688667,5.396475 Z" id="Fill-58"></path>
            <path d="M48.2764067,2.59455 C48.1042067,2.59455 47.9493178,2.64705 47.8080956,2.751175 C47.6677844,2.856175 47.5630067,2.978675 47.4937622,3.1213 C47.4290733,3.258675 47.3862511,3.40305 47.3616511,3.55355 C47.3388733,3.70405 47.3261178,3.851925 47.3261178,3.9998 C47.3261178,4.151175 47.3388733,4.31655 47.3616511,4.488925 C47.3862511,4.6613 47.4327178,4.821425 47.50014,4.970175 C47.5702956,5.117175 47.6677844,5.239675 47.7962511,5.335925 C47.9238067,5.433925 48.0896289,5.481175 48.2909844,5.481175 C48.4859622,5.481175 48.6463178,5.4348 48.7656733,5.341175 C48.8850289,5.2458 48.9788733,5.12855 49.0453844,4.98855 C49.1109844,4.84855 49.1556289,4.69455 49.1765844,4.527425 C49.1984511,4.35855 49.2066511,4.20105 49.2066511,4.0523 C49.2066511,3.9053 49.1984511,3.74605 49.1765844,3.575425 C49.1556289,3.405675 49.1091622,3.248175 49.0399178,3.10205 C48.9724956,2.9568 48.8759178,2.835175 48.75474,2.7398 C48.6308289,2.64355 48.4722956,2.59455 48.2764067,2.59455 Z M47.3488956,2.609425 C47.4828289,2.34955 47.6532067,2.166675 47.8600289,2.06255 C48.0677622,1.956675 48.3174067,1.904175 48.6107844,1.904175 C48.91874,1.904175 49.1820511,1.961925 49.3988956,2.077425 C49.6166511,2.192925 49.7943178,2.34605 49.9291622,2.5368 C50.0649178,2.72755 50.1642289,2.947175 50.2289178,3.192175 C50.2945178,3.4363 50.3264067,3.692675 50.3264067,3.9578 C50.3264067,4.172175 50.3036289,4.40055 50.2608067,4.642925 C50.2179844,4.886175 50.13234,5.1373 50.0056956,5.3963 C49.9902067,5.426925 49.9510289,5.486425 49.8899844,5.57305 C49.8298511,5.66055 49.7405622,5.74805 49.6248511,5.8338 C49.5127844,5.922175 49.3724733,5.999175 49.20574,6.067425 C49.0380956,6.137425 48.8385622,6.17155 48.6107844,6.17155 C48.5041844,6.17155 48.3884733,6.16105 48.2672956,6.140925 C48.1442956,6.11905 48.0258511,6.079675 47.9083178,6.02105 C47.7907844,5.9633 47.6787178,5.8828 47.5702956,5.7848 C47.4609622,5.68505 47.3634733,5.556425 47.2778289,5.3963 L47.2778289,6.0788 L45.7316733,6.0788 L45.7316733,5.426925 L46.2901844,5.426925 L46.2901844,1.1543 L45.7316733,1.1543 L45.7316733,0.5033 L47.3488956,0.5033 L47.3488956,2.609425 Z" id="Fill-59"></path>
            <polygon id="Fill-60" points="50.87444 6.07915 50.87444 5.427275 51.4174622 5.427275 51.4174622 1.153775 50.87444 1.153775 50.87444 0.50365 52.4779956 0.50365 52.4779956 5.427275 52.9882178 5.427275 52.9882178 6.07915"></polygon>
            <path d="M54.0972222,1.38425 L55.1577556,1.38425 L55.1577556,0.44975 L54.0972222,0.44975 L54.0972222,1.38425 Z M53.5296,6.0795 L53.5296,5.427625 L54.0972222,5.427625 L54.0972222,2.655625 L53.5296,2.655625 L53.5296,2.004625 L55.1577556,2.004625 L55.1577556,5.427625 L55.6524889,5.427625 L55.6524889,6.0795 L53.5296,6.0795 Z" id="Fill-61"></path>
            <path d="M59.0103889,3.536225 C59.0031,3.4181 58.9876111,3.301725 58.9566333,3.18885 C58.9283889,3.07335 58.8819222,2.970975 58.8181444,2.8861 C58.7543667,2.797725 58.6723667,2.727725 58.5739667,2.675225 C58.4764778,2.620975 58.3553,2.594725 58.2113444,2.594725 C57.9999667,2.594725 57.8305,2.645475 57.7038556,2.74785 C57.5799444,2.84935 57.4851889,2.9771 57.4177667,3.1311 C57.3521667,3.284225 57.3093444,3.450475 57.2911222,3.6316 C57.2719889,3.812725 57.2628778,3.980725 57.2628778,4.13385 C57.2628778,4.2826 57.2774556,4.435725 57.3075222,4.596725 C57.3357667,4.757725 57.3877,4.904725 57.4624111,5.0421 C57.5371222,5.17685 57.6364333,5.287975 57.7612556,5.3746 C57.8860778,5.4621 58.0409667,5.5041 58.2277444,5.5041 C58.3452778,5.5041 58.4482333,5.48135 58.5357,5.43585 C58.6222556,5.389475 58.6987889,5.331725 58.7616556,5.26085 C58.8254333,5.1891 58.8773667,5.1051 58.9147222,5.011475 C58.9520778,4.916975 58.9748556,4.8181 58.9857889,4.7166 L59.9032778,4.7166 C59.8914333,4.965975 59.8395,5.181225 59.7474778,5.363225 C59.6545444,5.543475 59.5279,5.69485 59.3730111,5.814725 C59.2153889,5.9346 59.0295222,6.024725 58.8181444,6.082475 C58.6067667,6.141975 58.3771667,6.171725 58.1329889,6.171725 C57.7913222,6.171725 57.4961222,6.1131 57.2464778,5.998475 C56.9977444,5.882975 56.7891,5.727225 56.6241889,5.531225 C56.4601889,5.33435 56.3371889,5.104225 56.2588333,4.838225 C56.1795667,4.5731 56.1385667,4.288725 56.1385667,3.9886 C56.1385667,3.72785 56.1759222,3.4706 56.2506333,3.2151 C56.3253444,2.9596 56.4492556,2.715475 56.6241889,2.479225 C56.7362556,2.32085 56.9002556,2.1861 57.1152778,2.073225 C57.3321222,1.961225 57.5899667,1.90435 57.8924556,1.90435 C58.0209222,1.90435 58.1421,1.9131 58.2559889,1.927975 C58.3698778,1.943725 58.4783,1.9726 58.5776111,2.01635 C58.6796556,2.059225 58.7698556,2.11785 58.8536778,2.1931 C58.9356778,2.265725 59.0067444,2.361975 59.0659667,2.479225 L59.0659667,2.004975 L59.8786778,2.004975 L59.8786778,3.536225 L59.0103889,3.536225 Z" id="Fill-62"></path>
            <path d="M64.9112911,5.396475 C65.0607133,5.396475 65.2083133,5.387725 65.3577356,5.3711 C65.5071578,5.352725 65.6429133,5.294975 65.7650022,5.196975 C65.8807133,5.0946 65.9627133,4.986975 66.0073578,4.873225 C66.0538244,4.7621 66.0766022,4.63085 66.0766022,4.481225 C66.0766022,4.33335 66.0465356,4.195975 65.9882244,4.07085 C65.9290022,3.94485 65.83698,3.8416 65.7085133,3.758475 C65.5873356,3.68235 65.4579578,3.639475 65.3222022,3.6316 C65.1873578,3.6246 65.0461356,3.6211 64.90218,3.6211 L64.1778467,3.6211 L64.1778467,5.396475 L64.9112911,5.396475 Z M64.1778467,1.28485 L64.1778467,2.9316 L64.8156244,2.9316 C64.9486467,2.9316 65.0944244,2.925475 65.2584244,2.911475 C65.4206022,2.899225 65.5554467,2.84935 65.6602244,2.762725 C65.7568022,2.680475 65.8296911,2.5781 65.8788911,2.456475 C65.9308244,2.3331 65.9554244,2.2106 65.9554244,2.088975 C65.9554244,1.9306 65.9253578,1.786225 65.8652244,1.656725 C65.80418,1.52635 65.6957578,1.42485 65.5408689,1.353975 C65.48438,1.3321 65.4151356,1.3181 65.3349578,1.308475 C65.25478,1.296225 65.17278,1.2901 65.09078,1.28485 C65.00878,1.2796 64.9276911,1.278725 64.8475133,1.28135 C64.7673356,1.2831 64.6962689,1.28485 64.63158,1.28485 L64.1778467,1.28485 Z M65.3030689,0.59535 C65.5308467,0.59535 65.7531578,0.611975 65.96818,0.64435 C66.1832022,0.678475 66.3827356,0.76685 66.5695133,0.9086 C66.7298689,1.031975 66.8492244,1.19385 66.9294022,1.3951 C67.00958,1.597225 67.0487578,1.79585 67.0487578,1.98835 C67.0487578,2.34185 66.9540022,2.62535 66.7654022,2.839725 C66.5768022,3.0541 66.2989133,3.189725 65.9326467,3.243975 C66.1285356,3.250975 66.3025578,3.292975 66.4556244,3.3726 C66.6050467,3.450475 66.7353356,3.553725 66.8419356,3.677975 C66.9485356,3.8031 67.0287133,3.949225 67.0861133,4.113725 C67.14078,4.28085 67.1681133,4.449725 67.1681133,4.62385 C67.1681133,4.8951 67.1016022,5.140975 66.9649356,5.363225 C66.82918,5.585475 66.6378467,5.7596 66.38638,5.888225 C66.2907133,5.938975 66.1822911,5.977475 66.0611133,6.001975 C65.9362911,6.028225 65.8132911,6.047475 65.6857356,6.0606 C65.5572689,6.07285 65.4306244,6.078975 65.3067133,6.078975 L64.95958,6.078975 L62.4303356,6.078975 L62.4303356,5.389475 L63.0854244,5.389475 L63.0854244,1.28485 L62.4303356,1.28485 L62.4303356,0.59535 L65.3030689,0.59535 Z" id="Fill-63"></path>
            <path d="M69.9366156,4.1950125 C69.7981267,4.1950125 69.6660156,4.2055125 69.5393711,4.2256375 C69.4172822,4.2475125 69.3070378,4.2833875 69.21046,4.3358875 C69.1147933,4.3901375 69.03826,4.4662625 68.9826822,4.5625125 C68.9280156,4.6587625 68.89886,4.7847625 68.89886,4.9378875 C68.89886,5.0962625 68.9507933,5.2310125 69.0501044,5.3412625 C69.1521489,5.4497625 69.2869933,5.5040125 69.4582822,5.5040125 C69.6505267,5.5040125 69.8081489,5.4655125 69.9311489,5.3858875 C70.0577933,5.3071375 70.1552822,5.2030125 70.2263489,5.0761375 C70.2974156,4.9483875 70.3493489,4.8057625 70.3812378,4.6508875 C70.4131267,4.4951375 70.4331711,4.3428875 70.4386378,4.1950125 L69.9366156,4.1950125 Z M70.5188156,5.4270125 C70.3958156,5.6886375 70.2181489,5.8776375 69.9794378,5.9948875 C69.7443711,6.1112625 69.48106,6.1716375 69.1949711,6.1716375 C69.04646,6.1716375 68.9006822,6.1506375 68.7603711,6.1130125 C68.6182378,6.0762625 68.4915933,6.0237625 68.3758822,5.9572625 C68.2619933,5.8916375 68.1663267,5.8128875 68.0861489,5.7245125 C68.0059711,5.6352625 67.9540378,5.5372625 67.9349044,5.4305125 C67.8920822,5.2975125 67.86566,5.1933875 67.8547267,5.1128875 C67.8437933,5.0350125 67.8383267,4.9641375 67.8383267,4.9037625 C67.8383267,4.7287625 67.87386,4.5633875 67.9431044,4.4032625 C68.0114378,4.2422625 68.1162156,4.1040125 68.2565267,3.9876375 C68.3102822,3.9412625 68.3758822,3.8975125 68.45606,3.8572625 C68.5362378,3.8161375 68.6237044,3.7793875 68.7139044,3.7461375 C68.8050156,3.7128875 68.8952156,3.6866375 68.9863267,3.6665125 C69.0774378,3.6463875 69.1576156,3.6350125 69.22686,3.6350125 C69.3279933,3.6306375 69.4291267,3.6236375 69.5329933,3.6131375 C69.6359489,3.6026375 69.7389044,3.5965125 69.8409489,3.5965125 C69.9366156,3.5965125 70.0322822,3.6008875 70.1270378,3.6087625 C70.2227044,3.6175125 70.3192822,3.6236375 70.4131267,3.6280125 C70.4295267,3.5046375 70.4349933,3.3777625 70.4258822,3.2473875 C70.4185933,3.1161375 70.3903489,2.9953875 70.3438822,2.8886375 C70.2946822,2.7801375 70.2227044,2.6900125 70.1270378,2.6208875 C70.0322822,2.5535125 69.9010822,2.5176375 69.73526,2.5176375 C69.5020156,2.5176375 69.3298156,2.5867625 69.2177489,2.7241375 C69.1075044,2.8632625 69.0537489,3.0391375 69.0592156,3.2535125 L67.9986822,3.2535125 C68.0041489,3.0023875 68.0524378,2.7923875 68.14446,2.6208875 C68.2392156,2.4493875 68.3631267,2.3111375 68.5198378,2.2035125 C68.6783711,2.0967625 68.8596822,2.0197625 69.0665044,1.9742625 C69.2742378,1.9278875 69.4956378,1.9042625 69.7279711,1.9042625 C69.8919711,1.9042625 70.0559711,1.9165125 70.21086,1.9392625 C70.3693933,1.9620125 70.5151711,2.0048875 70.65366,2.0652625 C70.7921489,2.1273875 70.9151489,2.2078875 71.0235711,2.3111375 C71.1338156,2.4126375 71.2249267,2.5421375 71.2996378,2.7022625 C71.3315267,2.7731375 71.3552156,2.8343875 71.36706,2.8860125 C71.3816378,2.9358875 71.3925711,3.0023875 71.4025933,3.0837625 C71.4135267,3.1712625 71.4226378,3.2578875 71.4281044,3.3453875 C71.4335711,3.4320125 71.4353933,3.5186375 71.4353933,3.6043875 L71.4353933,5.4357625 L71.9866156,5.4357625 L71.9866156,6.0788875 L70.5188156,6.0788875 L70.5188156,5.4270125 Z" id="Fill-64"></path>
            <path d="M73.91562,2.6791625 C74.1807533,2.1629125 74.6062422,1.9039125 75.1911756,1.9039125 C75.3551756,1.9039125 75.5082422,1.9266625 75.6503756,1.9695375 C75.7915978,2.0132875 75.9155089,2.0727875 76.0239311,2.1462875 C76.1350867,2.2206625 76.2234644,2.3029125 76.2908867,2.3947875 C76.3610422,2.4866625 76.40842,2.5785375 76.4357533,2.6712875 C76.4621756,2.7780375 76.4785756,2.8751625 76.4831311,2.9617875 C76.4885978,3.0492875 76.4922422,3.1350375 76.4922422,3.2225375 L76.4922422,5.4275375 L77.0170422,5.4275375 L77.0170422,6.0794125 L74.9351533,6.0794125 L74.9351533,5.4275375 L75.4317089,5.4275375 L75.4317089,3.5970375 C75.4317089,3.4964125 75.4298867,3.4027875 75.4262422,3.3179125 C75.42442,3.2339125 75.4071089,3.1402875 75.37522,3.0387875 C75.3378644,2.9162875 75.2695311,2.8130375 75.1683978,2.7334125 C75.0654422,2.6502875 74.9460867,2.6091625 74.8085089,2.6091625 C74.6171756,2.6091625 74.4659311,2.6494125 74.3529533,2.7281625 C74.2408867,2.8077875 74.1597978,2.9084125 74.1078644,3.0300375 C74.0522867,3.1534125 74.0203978,3.2881625 74.0067311,3.4360375 C73.9939756,3.5856625 73.9866867,3.7291625 73.9866867,3.8726625 L73.9866867,5.4275375 L74.49782,5.4275375 L74.49782,6.0794125 L72.3676422,6.0794125 L72.3676422,5.4275375 L72.9261533,5.4275375 L72.9261533,2.6616625 L72.3676422,2.6616625 L72.3676422,2.0115375 L73.91562,2.0115375 L73.91562,2.6791625 Z" id="Fill-65"></path>
            <polygon id="Fill-66" points="77.3518756 6.07915 77.3518756 5.427275 77.9030978 5.427275 77.9030978 1.153775 77.3518756 1.153775 77.3518756 0.50365 78.9645422 0.50365 78.9645422 3.827775 80.3594533 2.625525 79.7453644 2.625525 79.7453644 2.00515 81.8254311 2.00515 81.8254311 2.655275 81.3398089 2.655275 80.3275644 3.48215 81.4682756 5.427275 81.89832 5.427275 81.89832 6.07915 79.9448978 6.07915 79.9448978 5.4579 80.40592 5.4579 79.6260089 4.141025 78.9645422 4.6774 78.9645422 5.4579 79.4182756 5.4579 79.4182756 6.07915"></polygon>
        </g>
    </g>
</svg>